<?xml version="1.0" standalone="no"?>
<!DOCTYPE svg PUBLIC "-//W3C//DTD SVG 20010904//EN"
 "http://www.w3.org/TR/2001/REC-SVG-20010904/DTD/svg10.dtd">
<svg version="1.0" xmlns="http://www.w3.org/2000/svg"
 width="260.000000pt" height="260.000000pt" viewBox="0 0 260.000000 260.000000"
 preserveAspectRatio="xMidYMid meet">
<metadata>
Created by potrace 1.11, written by Peter Selinger 2001-2013
</metadata>
<g transform="translate(0.000000,260.000000) scale(0.100000,-0.100000)"
fill="#000000" stroke="none">
<path d="M775 2578 c-8 -18 -29 -27 -98 -45 -107 -27 -136 -47 -176 -118 -29
-51 -31 -60 -25 -122 3 -38 12 -84 21 -103 8 -19 21 -55 30 -80 18 -51 52
-101 102 -147 43 -39 36 -50 -39 -57 l-55 -6 35 16 c19 9 29 19 23 21 -7 3
-13 11 -13 19 0 8 -4 14 -9 14 -5 0 -7 8 -4 19 3 11 -2 21 -11 24 -9 4 -16 13
-16 21 0 28 -44 45 -106 40 -135 -10 -121 -2 -225 -114 -28 -30 -59 -71 -69
-91 -10 -19 -25 -40 -32 -47 -8 -6 -27 -39 -43 -72 l-30 -62 22 -36 c11 -21
32 -43 46 -51 21 -13 30 -13 68 2 25 9 62 35 84 57 60 61 103 80 178 80 91 0
147 -27 147 -70 0 -4 -29 -23 -65 -41 -91 -46 -224 -156 -281 -231 -27 -35
-75 -92 -107 -128 -31 -36 -73 -83 -92 -104 l-35 -39 0 -564 0 -563 1085 0
1085 0 0 51 c0 46 6 61 54 133 56 85 101 131 200 206 33 25 73 57 90 72 16 15
42 32 58 39 l28 11 0 944 c0 618 -3 945 -10 949 -5 3 -10 35 -10 69 0 35 -3
78 -6 95 l-6 31 -892 0 -891 0 -10 -22z m1031 -439 c11 -4 27 -22 35 -41 7
-18 17 -37 21 -43 5 -5 31 -43 58 -82 28 -40 55 -73 60 -73 6 0 10 -6 10 -14
0 -10 -16 -17 -47 -22 -27 -3 -74 -15 -105 -25 -32 -11 -64 -19 -72 -19 -23 0
-159 -65 -174 -83 -18 -22 -9 -34 38 -48 37 -11 43 -10 92 20 69 43 181 79
273 87 65 6 78 4 95 -11 11 -10 20 -24 20 -31 0 -18 -36 -27 -59 -15 -33 18
-135 13 -187 -9 -56 -24 -169 -120 -177 -150 -9 -37 14 -33 57 9 23 22 45 41
49 41 3 0 14 -14 23 -32 15 -30 15 -32 -2 -45 -10 -7 -30 -13 -46 -13 -15 0
-28 -5 -28 -11 0 -9 16 -9 58 -3 31 5 102 9 157 9 71 0 107 5 123 15 33 22 27
33 -15 24 -69 -14 -109 -6 -85 18 7 7 12 27 12 46 0 34 1 35 35 29 19 -3 47
-15 62 -26 39 -32 88 -24 123 20 15 18 16 18 57 -9 24 -16 72 -41 108 -57 36
-16 65 -33 65 -38 0 -5 -8 -21 -18 -35 -23 -32 -92 -166 -126 -242 -34 -77
-56 -168 -56 -233 0 -43 -7 -69 -31 -114 -30 -57 -31 -61 -30 -187 l1 -128
-52 -57 c-72 -79 -104 -125 -145 -209 -29 -61 -41 -76 -76 -94 -23 -11 -61
-34 -85 -50 -49 -34 -157 -66 -247 -75 l-61 -6 1 64 c1 35 -3 117 -9 181 -13
137 -6 126 -167 293 -141 145 -155 163 -229 280 -105 166 -162 306 -204 494
-16 67 -7 119 16 105 7 -4 69 -8 138 -8 98 -1 132 -5 159 -18 44 -23 81 -23
81 -1 0 25 -40 63 -67 63 -13 0 -40 7 -61 16 -20 9 -64 17 -97 19 -80 3 -78 3
-71 20 3 9 0 15 -8 15 -8 0 -17 -11 -20 -25 -4 -14 -11 -25 -17 -25 -14 0 -4
59 12 75 14 14 108 11 144 -5 l30 -13 -30 -6 -30 -6 43 -14 c32 -11 45 -12 51
-3 5 8 14 7 35 -3 56 -29 95 -10 77 38 -11 29 -42 52 -83 62 -16 4 -28 11 -28
15 0 5 25 20 55 34 30 13 74 38 99 55 71 49 261 242 285 289 l22 43 72 -7 c40
-4 81 -10 93 -15z m-1283 -246 c-7 -2 -19 -2 -25 0 -7 3 -2 5 12 5 14 0 19 -2
13 -5z m1367 -243 c0 -5 -4 -10 -10 -10 -5 0 -10 5 -10 10 0 6 5 10 10 10 6 0
10 -4 10 -10z m-5 -60 c3 -5 -1 -10 -9 -10 -8 0 -18 5 -21 10 -3 6 1 10 9 10
8 0 18 -4 21 -10z"/>
<path d="M1687 1652 c-18 -20 -22 -42 -9 -42 5 0 18 14 30 30 25 34 7 44 -21
12z"/>
<path d="M1365 891 c-28 -7 -28 -8 -8 -14 12 -4 32 -5 46 -2 16 4 39 -1 65
-14 49 -25 99 -26 179 -6 32 8 76 17 98 20 22 2 54 9 70 15 24 8 18 9 -30 4
-33 -3 -95 -7 -139 -10 -43 -2 -87 -6 -97 -9 -9 -3 -34 1 -54 10 -39 16 -79
18 -130 6z"/>
<path d="M82 2410 c-7 -11 -12 -30 -12 -42 1 -16 5 -11 15 17 16 44 15 53 -3
25z"/>
</g>
</svg>
